<svg xmlns="http://www.w3.org/2000/svg" width="1792" height="567" viewBox="0 0 1792 567">
  <g id="Group_2" data-name="Group 2" transform="translate(-71 -1034)">
    <rect id="Rectangle_3" data-name="Rectangle 3" width="1792" height="567" rx="108" transform="translate(71 1034)" fill="#00a8e1"/>
    <text id="Live_Content_and_the_palm_of_your_hand" data-name="Live Content and the palm of your hand" transform="translate(372 1158)" fill="#fff" font-size="60" font-family="Helvetica-Bold, Helvetica" font-weight="700"><tspan x="0" y="0">Live Content and the palm of your hand</tspan></text>
    <text id="With_4K_HDR_quality_you_can_enjoy_all_of_the_live_content_you_like_to_see_from_Sports_events_to_E-Sports_events_" data-name="With 4K HDR quality, you can enjoy all of the live content you like to see , 
from Sports events to E-Sports events " transform="translate(960 1481)" fill="#fff" font-size="40" font-family="Helvetica-Light, Helvetica" font-weight="300"><tspan x="-654" y="0">With 4K HDR quality, you can enjoy all of the live content you like to see , </tspan><tspan x="-342" y="48">from Sports events to E-Sports events </tspan></text>
    <path id="Icon_material-live-tv" data-name="Icon material-live-tv" d="M196.484,42h-74L154.562,9.922,147.738,3l-39,39-39-39L62.822,9.922,94.995,42H21A19.493,19.493,0,0,0,1.5,61.5v116.99a19.556,19.556,0,0,0,19.5,19.5H196.484a19.556,19.556,0,0,0,19.5-19.5V61.5A19.493,19.493,0,0,0,196.484,42Zm0,136.489H21V61.5H196.484ZM79.493,80.993v77.993l68.244-39Z" transform="translate(851.259 1213)" fill="#fff"/>
  </g>
</svg>
